<?xml version="1.0" encoding="iso-8859-1"?>
<!-- Generator: Adobe Illustrator 19.0.0, SVG Export Plug-In . SVG Version: 6.00 Build 0)  -->
<svg version="1.1" id="Capa_1" xmlns="http://www.w3.org/2000/svg" xmlns:xlink="http://www.w3.org/1999/xlink" x="0px" y="0px"
	 viewBox="0 0 511.999 511.999" style="enable-background:new 0 0 511.999 511.999;" xml:space="preserve" fill="#1F95C7">
<g>
	<g>
		<path d="M191.307,228.982c-2.531-5.908-6.436-9.908-11.605-11.892c-10.558-4.049-22.958,1.692-34.952,7.243
			c-2.573,1.191-5.003,2.316-7.407,3.345c-21.068,9.026-35.31,44.677-26.274,65.769c2.525,5.895,6.491,9.94,11.785,12.019
			c2.763,1.085,5.659,1.551,8.654,1.551c9.374,0,19.692-4.574,29.748-9.033c1.767-0.784,3.514-1.558,5.224-2.291
			c10.042-4.302,18.716-14.908,23.798-29.097C195.168,252.95,195.552,238.889,191.307,228.982z M176.127,261.528
			c-3.571,9.968-9.535,17.764-15.566,20.348c-1.769,0.758-3.573,1.557-5.399,2.366c-9.463,4.197-21.242,9.421-26.812,7.232
			c-0.915-0.36-2.27-1.159-3.464-3.948c-5.809-13.559,4.838-40.232,18.376-46.032c2.603-1.114,5.245-2.338,7.802-3.522
			c8.3-3.843,18.632-8.621,23.253-6.85c0.508,0.195,1.859,0.714,3.172,3.776C180.236,241.311,179.713,251.514,176.127,261.528z"/>
	</g>
</g>
<g>
	<g>
		<path d="M403.165,51.457c-18.705,0-33.924,15.218-33.924,33.923s15.218,33.924,33.924,33.924
			c18.706-0.001,33.924-15.219,33.924-33.924S421.871,51.457,403.165,51.457z M403.165,104.273
			c-10.418-0.001-18.892-8.475-18.892-18.892s8.474-18.891,18.892-18.891s18.892,8.474,18.892,18.891
			S413.583,104.273,403.165,104.273z"/>
	</g>
</g>
<g>
	<g>
		<path d="M182.674,364.443c-1.381-3.916-5.674-5.968-9.588-4.588c-5.819,2.052-9.148,3.035-9.181,3.045
			c-3.982,1.169-6.264,5.343-5.097,9.325c0.96,3.278,3.958,5.406,7.21,5.406c0.698,0,1.41-0.098,2.115-0.305
			c0.148-0.044,3.705-1.089,9.955-3.294C182.002,372.649,184.056,368.357,182.674,364.443z"/>
	</g>
</g>
<g>
	<g>
		<path d="M377.605,227.688c-3.161-2.69-7.905-2.307-10.595,0.854c-2.093,2.458-4.268,4.949-6.466,7.401
			c-2.771,3.091-2.511,7.842,0.58,10.613c1.435,1.286,3.228,1.919,5.014,1.919c2.063,0,4.115-0.843,5.6-2.499
			c2.284-2.548,4.545-5.136,6.721-7.693C381.15,235.122,380.767,230.378,377.605,227.688z"/>
	</g>
</g>
<g>
	<g>
		<path d="M320.969,284.296c-2.591-3.245-7.322-3.775-10.564-1.185c-2.566,2.048-5.182,4.091-7.775,6.07
			c-3.299,2.519-3.932,7.236-1.412,10.536c1.48,1.937,3.716,2.955,5.98,2.955c1.59,0,3.195-0.503,4.556-1.543
			c2.678-2.044,5.38-4.154,8.029-6.27C323.027,292.271,323.558,287.541,320.969,284.296z"/>
	</g>
</g>
<g>
	<g>
		<path d="M350.666,257.366c-2.875-2.99-7.633-3.085-10.627-0.206c-2.335,2.246-4.749,4.513-7.177,6.739
			c-3.06,2.806-3.265,7.56-0.459,10.62c1.482,1.617,3.509,2.436,5.541,2.436c1.815,0,3.635-0.653,5.078-1.976
			c2.513-2.306,5.016-4.655,7.437-6.984C353.451,265.117,353.544,260.358,350.666,257.366z"/>
	</g>
</g>
<g>
	<g>
		<path d="M219.573,348.606c-1.736-3.77-6.197-5.423-9.97-3.687c-2.995,1.379-6.03,2.738-9.02,4.04
			c-3.806,1.658-5.547,6.087-3.889,9.892c1.232,2.828,3.995,4.517,6.895,4.517c1.002,0,2.02-0.201,2.997-0.627
			c3.083-1.343,6.211-2.744,9.299-4.165C219.657,356.84,221.308,352.377,219.573,348.606z"/>
	</g>
</g>
<g>
	<g>
		<path d="M150.752,388.046l-11.692-11.692l11.692-11.692c2.932-2.934,2.932-7.694-0.002-10.629c-2.935-2.935-7.694-2.936-10.63,0
			l-11.692,11.692l-11.692-11.692c-2.935-2.934-7.694-2.936-10.63,0c-2.935,2.935-2.935,7.695,0,10.629l11.693,11.692
			l-11.693,11.692c-2.935,2.935-2.935,7.695,0,10.63c1.468,1.468,3.391,2.202,5.316,2.202c1.923,0,3.847-0.734,5.315-2.202
			l11.692-11.692l11.692,11.692c1.468,1.467,3.392,2.202,5.315,2.202c1.923,0,3.847-0.734,5.316-2.202
			C153.688,395.74,153.688,390.981,150.752,388.046z"/>
	</g>
</g>
<g>
	<g>
		<path d="M504.484,124.007h-1.861h-34.515c5.842-13.248,8.784-26.155,8.784-38.627c0-40.652-33.074-73.726-73.726-73.726
			c-9.95,0-19.605,1.95-28.7,5.797c-3.823,1.617-5.612,6.028-3.994,9.851c1.617,3.823,6.026,5.612,9.85,3.995
			c7.232-3.059,14.917-4.61,22.843-4.61c32.364,0,58.693,26.329,58.693,58.693c0,43.05-44.135,84.616-58.697,97.156
			c-14.571-12.526-58.69-54.025-58.69-97.156c0-13.859,4.92-27.309,13.853-37.874c2.681-3.17,2.284-7.912-0.886-10.592
			c-3.169-2.681-7.911-2.284-10.592,0.886c-11.225,13.274-17.408,30.172-17.408,47.58c0,13.397,3.46,26.441,8.825,38.627H70.573
			V43.4c0-4.151-3.364-7.516-7.516-7.516C28.287,35.884,0,64.17,0,98.939v343.616c0,0.569,0.069,1.122,0.189,1.656
			c1.099,14.764,7.479,28.483,18.153,38.894c11.398,11.117,26.445,17.239,42.369,17.239h443.771c4.152,0,7.516-3.365,7.516-7.516
			V131.524C512,127.373,508.635,124.007,504.484,124.007z M293.254,153.463c2.488-2.213,8.131-6.491,20.9-14.424h31.866v0.001
			c15.807,26.758,38.567,47.521,48.133,55.601c-1.296,0.541-2.457,1.447-3.308,2.695c-1.838,2.695-3.735,5.399-5.64,8.036
			c-2.43,3.365-1.673,8.063,1.693,10.494c1.331,0.961,2.869,1.423,4.396,1.423c2.331,0,4.63-1.081,6.099-3.116
			c1.984-2.747,3.96-5.562,5.873-8.369c1.264-1.853,1.578-4.069,1.067-6.084c1.221-0.191,2.405-0.681,3.433-1.477
			c0.702-0.543,17.389-13.537,34.267-33.697c7.206-8.606,13.304-17.115,18.287-25.506h32.726
			c-7.65,29.891-20.006,66.12-34.524,101.052c-0.085,0.204-0.16,0.413-0.229,0.625c-3.583,11.367-11.635,24.247-21.54,34.455
			c-10.251,10.567-17.375,12.933-19.069,12.643c-18.166-18.153-33.132-29.944-47.045-28.574
			c-7.185,0.712-13.354,4.862-18.337,12.336c-7.053,10.58-1.303,26.774,18.097,50.962c7.679,9.575,15.805,18.258,21.138,23.73
			c-9.7,8.168-25.952,22.716-29.688,31.433c-2.208,5.151-3.329,13.66-4.629,23.511c-1.095,8.297-3.132,23.739-5.632,26.648
			c-0.675,0.69-1.501,1.564-2.461,2.583c-6.817,7.229-27.552,29.226-39.878,23.542c-14.424-6.657-17.071-26.987-13.437-39.104
			c1.335-4.449,3.372-8.04,5.53-11.843c4.213-7.427,8.988-15.844,7.88-30.237c-1.777-23.089-12.877-39.218-32.432-47.594
			c0.544-0.189,1.079-0.427,1.586-0.752c2.854-1.825,5.72-3.698,8.521-5.57c3.451-2.306,4.38-6.974,2.073-10.426
			c-2.307-3.453-6.975-4.379-10.426-2.073c-2.717,1.815-5.498,3.633-8.267,5.403c-3.475,2.222-4.503,6.824-2.323,10.313
			c-4.598-1.29-9.561-2.235-14.884-2.825c-18.985-2.107-32.817-8.183-35.236-15.479c-1.84-5.547,3.858-11.949,7.417-15.271
			c6.626-6.184,11.478-11.628,15.376-16.002c8.277-9.287,11.325-12.708,19.798-12.708c0.895,0,1.851,0.038,2.878,0.111
			c10.731,0.767,26.71,1.485,41.889,0.551c19.851-1.22,32.722-4.951,39.352-11.407c5.902-5.746,7.076-13.945,3.067-21.396
			c-4.232-7.861-13.489-13.862-26.069-16.897c-13.727-3.311-30.9-2.892-49.664,1.213c-38.211,8.36-51.151,6.872-55.078,5.747
			c1.128-1.729,3.717-4.716,8.961-8.702c24.751-18.805,80.417-19.861,81.118-19.872c3.258-0.045,6.114-2.188,7.074-5.301
			c0.961-3.114-0.196-6.493-2.862-8.367c-8.709-6.12-18.218-15.915-18.494-20.743C292.574,154.364,292.558,154.081,293.254,153.463z
			 M70.573,139.04h63.439c-6.083,19.267-24.085,62.968-63.439,68.9V139.04z M72.784,485.31
			c11.082-20.812,32.816-53.261,54.747-55.195c13.39-1.183,16.471,1.939,21.141,6.661c8.379,8.474,17.565,15.323,45.208,13.274
			c17.678-1.313,32.838,5.629,45.021,20.632c4.135,5.091,7.25,10.32,9.458,14.629H72.784z M496.971,316.857
			c-12.753,6.82-48.725,28.809-48.2,59.624c0.071,4.152,3.481,7.424,7.644,7.387c4.151-0.071,7.457-3.493,7.387-7.644
			c-0.296-17.303,18.82-33.126,33.17-42.05V485.31h-0.004H412.65c-8.005-30.931,9.983-49.923,27.408-68.318
			c2.824-2.982,5.492-5.799,8.046-8.666c2.76-3.1,2.484-7.851-0.615-10.612c-3.098-2.76-7.849-2.485-10.612,0.614
			c-2.399,2.694-4.99,5.429-7.733,8.325c-16.92,17.862-39.59,41.795-31.922,78.656H264.946c-2.337-5.544-6.829-14.702-14.044-23.694
			c-15.292-19.061-35.405-28.249-58.135-26.557c-22.969,1.704-28.041-3.424-33.407-8.852c-7.209-7.291-14.225-12.735-33.151-11.067
			c-34.739,3.066-62.3,53.92-70.154,69.939c-22.653-2.248-40.256-20.747-40.984-43.99c0.069-2.312,0.304-4.596,0.694-6.84
			c0.011-0.065,0.023-0.13,0.035-0.195c0.117-0.658,0.25-1.313,0.394-1.964c0.035-0.156,0.072-0.313,0.108-0.469
			c0.129-0.556,0.268-1.109,0.416-1.66c0.073-0.268,0.149-0.532,0.226-0.798c0.126-0.437,0.256-0.872,0.395-1.304
			c0.125-0.39,0.259-0.778,0.395-1.164c0.106-0.304,0.211-0.608,0.324-0.91c0.193-0.518,0.398-1.031,0.608-1.54
			c0.069-0.169,0.137-0.34,0.208-0.508c0.272-0.636,0.556-1.266,0.855-1.887c0.021-0.045,0.041-0.09,0.063-0.134
			c6.406-13.248,18.721-23.124,33.501-26.188c0.04-0.008,0.08-0.018,0.12-0.027c0.678-0.138,1.363-0.258,2.051-0.368
			c0.115-0.018,0.229-0.041,0.344-0.058c0.623-0.095,1.253-0.169,1.884-0.241c0.175-0.019,0.349-0.046,0.525-0.063
			c0.607-0.061,1.22-0.102,1.834-0.139c0.194-0.012,0.387-0.032,0.581-0.042c0.803-0.04,1.61-0.061,2.422-0.061
			c4.152,0,7.516-3.365,7.516-7.516v-59.805c0-4.151-3.364-7.516-7.516-7.516s-7.516,3.365-7.516,7.516v52.733
			c-0.993,0.117-1.979,0.266-2.961,0.429c-0.062,0.01-0.123,0.023-0.185,0.033c-0.921,0.156-1.835,0.335-2.745,0.531
			c-0.064,0.014-0.128,0.029-0.192,0.043c-11.395,2.498-21.899,8.121-30.43,16.45c-1.405,1.372-2.734,2.803-3.993,4.281V98.939
			c0-23.923,17.585-43.817,40.508-47.436v245.639c0,4.151,3.364,7.516,7.516,7.516s7.516-3.365,7.516-7.516v-74.039
			c25.405-3.019,47.097-18.79,63.071-46.007c8.885-15.139,13.823-30.062,16.073-38.057h137.461c-1.517,1.159-2.822,2.221-3.91,3.189
			c-4.016,3.569-5.98,8.203-5.678,13.399c0.404,6.971,5.151,13.961,10.448,19.676c-20.318,1.99-52.398,7.354-71.369,21.766
			c-13.268,10.081-18.143,19.205-14.489,27.118c3.823,8.282,15.475,15.059,72.912,2.491c20.915-4.576,34.888-3.224,42.927-1.285
			c9.57,2.308,14.724,6.374,16.356,9.408c1.041,1.934,0.444,2.76-0.317,3.502c-5.123,4.989-26.445,9.719-69.682,6.63
			c-18.137-1.298-25.198,6.625-34.97,17.59c-3.885,4.359-8.289,9.301-14.41,15.014c-6.191,5.779-15.908,17.488-11.429,30.993
			c3.592,10.832,15.05,18.811,32.793,23.102c-0.064,0.034-0.128,0.07-0.192,0.104c-3.663,1.954-5.048,6.507-3.095,10.169
			c1.353,2.536,3.951,3.981,6.638,3.981c1.194,0,2.403-0.286,3.531-0.886c2.985-1.592,5.99-3.233,8.932-4.877
			c2.063-1.152,3.369-3.134,3.74-5.295c24.356,3.891,36.572,16.411,38.321,39.126c0.755,9.816-2.212,15.047-5.968,21.668
			c-2.358,4.156-5.032,8.868-6.853,14.94c-5.157,17.191-1.884,46.263,21.537,57.072c3.518,1.623,7.091,2.333,10.664,2.332
			c18.903-0.003,37.645-19.874,46.451-29.209c0.882-0.935,1.641-1.74,2.261-2.373c5.556-5.669,7.409-17.082,9.799-35.204
			c1.008-7.644,2.151-16.307,3.543-19.555c2.238-5.223,18.218-20.128,31.74-30.942c1.691-1.352,2.716-3.367,2.814-5.53
			c0.099-2.163-0.741-4.262-2.301-5.763c-0.137-0.131-13.827-13.322-25.871-28.355c-17.603-21.975-18.411-31.359-17.236-33.121
			c3.193-4.79,5.701-5.556,7.311-5.715c8.706-0.862,24.171,13.482,35.037,24.347c2.254,2.255,7.287,5.73,15.67,3.679
			c17.655-4.32,41.726-31.796,49.701-56.665c9.206-22.175,17.561-44.884,24.44-66.246V316.857z"/>
	</g>
</g>
<g>
</g>
<g>
</g>
<g>
</g>
<g>
</g>
<g>
</g>
<g>
</g>
<g>
</g>
<g>
</g>
<g>
</g>
<g>
</g>
<g>
</g>
<g>
</g>
<g>
</g>
<g>
</g>
<g>
</g>
</svg>
